<?xml version="1.0" encoding="UTF-8"?>
<svg version="1.1" xmlns="http://www.w3.org/2000/svg" width="139" height="62">
<path d="M0 0 C0.66 0.33 1.32 0.66 2 1 C4.09821215 0.60061233 4.09821215 0.60061233 6 0 C6 0.66 6 1.32 6 2 C7.11375 2.185625 7.11375 2.185625 8.25 2.375 C10.90823188 2.97914361 12.76079839 3.45572303 15 5 C16.25 7.625 16.25 7.625 17 10 C16.34 10.33 15.68 10.66 15 11 C13.55487596 14.6128101 13 17.06687842 13 21 C13.99 21 14.98 21 16 21 C16 20.34 16 19.68 16 19 C18.31 19.33 20.62 19.66 23 20 C23.6875 21.8125 23.6875 21.8125 24 24 C23 25.8125 23 25.8125 21 27 C19.88625 26.814375 18.7725 26.62875 17.625 26.4375 C13.94977582 25.57345652 13.94977582 25.57345652 11.375 27.9375 C10.59125 28.618125 9.8075 29.29875 9 30 C6.3125 30.125 6.3125 30.125 4 30 C3.34 30.66 2.68 31.32 2 32 C-1.125 32.125 -1.125 32.125 -4 32 C-3.67 33.98 -3.34 35.96 -3 38 C-4.32 38.66 -5.64 39.32 -7 40 C-6.01 40.66 -5.02 41.32 -4 42 C-3.3125 44.125 -3.3125 44.125 -3 46 C-5.475 46.495 -5.475 46.495 -8 47 C-8.33 46.01 -8.66 45.02 -9 44 C-11.00016466 42.79117904 -11.00016466 42.79117904 -13 42 C-13.66 43.32 -14.32 44.64 -15 46 C-13.515 45.505 -13.515 45.505 -12 45 C-11.67 45.99 -11.34 46.98 -11 48 C-11.66 48 -12.32 48 -13 48 C-12.67 49.32 -12.34 50.64 -12 52 C-13.8125 52.6875 -13.8125 52.6875 -16 53 C-18.15616033 51.3961566 -18.91046939 50.34910928 -19.58203125 47.73046875 C-20.04395795 42.63361651 -20.14622013 38.79743323 -18 34 C-20.97 34.495 -20.97 34.495 -24 35 C-27.5625 26.6875 -27.5625 26.6875 -26 22 C-25.01 21.67 -24.02 21.34 -23 21 C-22.67 24.3 -22.34 27.6 -22 31 C-17.06998661 29.76749665 -16.0466745 27.92860659 -13 24 C-12.34 23.34 -11.68 22.68 -11 22 C-10.28765194 19.22184257 -10 16.87628285 -10 14 C-9.814375 13.319375 -9.62875 12.63875 -9.4375 11.9375 C-8.76986497 9.9325719 -8.76986497 9.9325719 -10 8 C-6.8987451 4.79180527 -3.71232059 2.47488039 0 0 Z M1 11 C2 15 2 15 2 15 Z M4 14 C4 14.99 4 15.98 4 17 C4.66 16.67 5.32 16.34 6 16 C5.34 15.34 4.68 14.68 4 14 Z M-24 27 C-23 29 -23 29 -23 29 Z M-19 40 C-18 42 -18 42 -18 42 Z " fill="#000000" transform="translate(39,6)"/>
<path d="M0 0 C1.98 0 3.96 0 6 0 C6.23074219 0.71027344 6.46148437 1.42054687 6.69921875 2.15234375 C7.02535156 3.07144531 7.35148437 3.99054687 7.6875 4.9375 C8.00074219 5.85402344 8.31398438 6.77054688 8.63671875 7.71484375 C9.80035523 10.24261161 9.80035523 10.24261161 12.5 10.78125 C13.7375 10.88953125 13.7375 10.88953125 15 11 C16.33542939 11.32483418 17.66961551 11.6550855 19 12 C19 11.34 19 10.68 19 10 C17.865625 9.690625 16.73125 9.38125 15.5625 9.0625 C12 8 12 8 11 7 C10.8125 4.5625 10.8125 4.5625 11 2 C13 0 13 0 16.4375 -0.3125 C20 0 20 0 21.9375 1.375 C23 3 23 3 23 5 C21.35 5 19.7 5 18 5 C18 4.34 18 3.68 18 3 C17.34 3.66 16.68 4.32 16 5 C16.969375 5.309375 17.93875 5.61875 18.9375 5.9375 C22 7 22 7 23 8 C23.25 10.9375 23.25 10.9375 23 14 C19.52728445 16.3151437 18.07260203 16.25453763 14 16 C13.01 15.67 12.02 15.34 11 15 C9.33378384 14.96125079 7.66605828 14.9549714 6 15 C6 14.01 6 13.02 6 12 C4.02 12 2.04 12 0 12 C-0.33 12.99 -0.66 13.98 -1 15 C-2.32 15 -3.64 15 -5 15 C-4.54705135 13.24859857 -4.08741252 11.49892656 -3.625 9.75 C-3.36976562 8.77546875 -3.11453125 7.8009375 -2.8515625 6.796875 C-2.10401491 4.34162697 -1.22876183 2.24382595 0 0 Z M2 4 C1.67 5.32 1.34 6.64 1 8 C1.99 8 2.98 8 4 8 C3.34 6.68 2.68 5.36 2 4 Z M10 12 C11 14 11 14 11 14 Z " fill="#000000" transform="translate(54,35)"/>
<path d="M0 0 C9.15662651 -0.48192771 9.15662651 -0.48192771 12.625 1.5 C14.69868227 5.2703314 14.4761505 7.71464551 14 12 C12.58947516 14.1863135 11.63413278 14.75087641 9.25 15.6875 C6.19423981 16.11191114 3.0850924 16 0 16 C0 10.72 0 5.44 0 0 Z M4 4 C4 6.64 4 9.28 4 12 C7.29075996 11.62095792 7.29075996 11.62095792 10 10 C10.16666667 7.5 10.16666667 7.5 10 5 C8.93354885 3.70366379 8.93354885 3.70366379 6.4375 3.9375 C5.633125 3.958125 4.82875 3.97875 4 4 Z " fill="#000000" transform="translate(98,35)"/>
<path d="M0 0 C1.32 0 2.64 0 4 0 C4.33 1.65 4.66 3.3 5 5 C5.5775 4.175 6.155 3.35 6.75 2.5 C7.4925 1.675 8.235 0.85 9 0 C10.32 0 11.64 0 13 0 C12.67 0.7425 12.34 1.485 12 2.25 C10.77217129 5.13883312 10.77217129 5.13883312 11 9 C11.99 10.485 11.99 10.485 13 12 C13.33 11.67 13.66 11.34 14 11 C15.66617115 10.95936168 17.33388095 10.957279 19 11 C19 12.32 19 13.64 19 15 C17.3973218 15.10824843 15.79254252 15.18570645 14.1875 15.25 C13.29417969 15.29640625 12.40085937 15.3428125 11.48046875 15.390625 C9 15 9 15 7.17578125 13.109375 C6 11 6 11 6 9 C5.34 9 4.68 9 4 9 C4 10.98 4 12.96 4 15 C2.68 15 1.36 15 0 15 C0 10.05 0 5.1 0 0 Z " fill="#000000" transform="translate(78,35)"/>
<path d="M0 0 C1.32 0 2.64 0 4 0 C4.99 2.97 5.98 5.94 7 9 C7.99 6.03 8.98 3.06 10 0 C11.32 0 12.64 0 14 0 C13.35812082 5.13503344 12.31727753 9.9943454 11 15 C8.69 15 6.38 15 4 15 C3.32779649 13.06441401 2.66241923 11.12645628 2 9.1875 C1.62875 8.10855469 1.2575 7.02960937 0.875 5.91796875 C0 3 0 3 0 0 Z " fill="#000000" transform="translate(124,35)"/>
<path d="M0 0 C3.3 0 6.6 0 10 0 C10 1.32 10 2.64 10 4 C8.02 4 6.04 4 4 4 C4 4.66 4 5.32 4 6 C5.98 6 7.96 6 10 6 C10 6.99 10 7.98 10 9 C8.02 9 6.04 9 4 9 C4 9.99 4 10.98 4 12 C5.98 12 7.96 12 10 12 C10 12.99 10 13.98 10 15 C6.7 15 3.4 15 0 15 C0 10.05 0 5.1 0 0 Z " fill="#000000" transform="translate(113,35)"/>
<path d="M0 0 C0.33 0.66 0.66 1.32 1 2 C1.99 2.33 2.98 2.66 4 3 C2.35 3.33 0.7 3.66 -1 4 C-1.33 3.01 -1.66 2.02 -2 1 C-1.34 0.67 -0.68 0.34 0 0 Z " fill="#000000" transform="translate(19,57)"/>
<path d="M0 0 C0.66 0.99 1.32 1.98 2 3 C1.01 3.33 0.02 3.66 -1 4 C-1.33 3.01 -1.66 2.02 -2 1 C-1.34 0.67 -0.68 0.34 0 0 Z " fill="#000000" transform="translate(43,42)"/>
<path d="M0 0 C2 1 2 1 2 1 Z " fill="#000000" transform="translate(33,46)"/>
<path d="M0 0 C2 1 2 1 2 1 Z " fill="#000000" transform="translate(36,39)"/>
<path d="M0 0 C2 1 2 1 2 1 Z " fill="#000000" transform="translate(17,36)"/>
<path d="" fill="#000000" transform="translate(0,0)"/>
<path d="" fill="#000000" transform="translate(0,0)"/>
<path d="" fill="#000000" transform="translate(0,0)"/>
<path d="" fill="#000000" transform="translate(0,0)"/>
<path d="" fill="#000000" transform="translate(0,0)"/>
<path d="" fill="#000000" transform="translate(0,0)"/>
<path d="" fill="#000000" transform="translate(0,0)"/>
<path d="" fill="#000000" transform="translate(0,0)"/>
<path d="" fill="#000000" transform="translate(0,0)"/>
<path d="" fill="#000000" transform="translate(0,0)"/>
<path d="" fill="#000000" transform="translate(0,0)"/>
<path d="" fill="#000000" transform="translate(0,0)"/>
<path d="" fill="#000000" transform="translate(0,0)"/>
<path d="" fill="#000000" transform="translate(0,0)"/>
<path d="" fill="#000000" transform="translate(0,0)"/>
<path d="" fill="#000000" transform="translate(0,0)"/>
<path d="" fill="#000000" transform="translate(0,0)"/>
<path d="" fill="#000000" transform="translate(0,0)"/>
<path d="" fill="#000000" transform="translate(0,0)"/>
<path d="" fill="#000000" transform="translate(0,0)"/>
<path d="" fill="#000000" transform="translate(0,0)"/>
<path d="" fill="#000000" transform="translate(0,0)"/>
<path d="" fill="#000000" transform="translate(0,0)"/>
<path d="" fill="#000000" transform="translate(0,0)"/>
<path d="" fill="#000000" transform="translate(0,0)"/>
</svg>
