<svg width="120" height="120" viewBox="0 0 120 120" fill="none" xmlns="http://www.w3.org/2000/svg">
<circle cx="60" cy="60" r="60" fill="#27AAE0"/>
<circle cx="32.5" cy="46.5" r="2.5" fill="white"/>
<circle cx="40.5" cy="46.5" r="2.5" fill="white"/>
<circle cx="47.5" cy="46.5" r="2.5" fill="white"/>
<circle cx="54.5" cy="53.5" r="2.5" fill="white"/>
<circle cx="54.5" cy="60.5" r="2.5" fill="white"/>
<circle cx="47.5" cy="60.5" r="2.5" fill="white"/>
<circle cx="40.5" cy="60.5" r="2.5" fill="white"/>
<circle cx="32.5" cy="60.5" r="2.5" fill="white"/>
<circle cx="25.5" cy="67.5" r="2.5" fill="white"/>
<circle cx="25.5" cy="75.5" r="2.5" fill="white"/>
<circle cx="32.5" cy="82.5" r="2.5" fill="white"/>
<circle cx="40.5" cy="82.5" r="2.5" fill="white"/>
<circle cx="47.5" cy="82.5" r="2.5" fill="white"/>
<circle cx="54.5" cy="67.5" r="2.5" fill="white"/>
<circle cx="54.5" cy="75.5" r="2.5" fill="white"/>
<circle cx="56.5" cy="82.5" r="2.5" fill="white"/>
<circle cx="74.5" cy="82.5" r="2.5" fill="white"/>
<circle cx="82.5" cy="82.5" r="2.5" fill="white"/>
<circle cx="82.5" cy="75.5" r="2.5" fill="white"/>
<circle cx="82.5" cy="68.5" r="2.5" fill="white"/>
<circle cx="82.5" cy="61.5" r="2.5" fill="white"/>
<circle cx="82.5" cy="54.5" r="2.5" fill="white"/>
<circle cx="82.5" cy="47.5" r="2.5" fill="white"/>
<circle cx="82.5" cy="37.5" r="2.5" fill="white"/>
<circle cx="74.5" cy="48.5" r="2.5" fill="white"/>
<circle cx="89.5" cy="82.5" r="2.5" fill="white"/>
</svg>
