<svg width="259" height="104" viewBox="0 0 259 104" fill="none" xmlns="http://www.w3.org/2000/svg">
<g clip-path="url(#clip0_668_487)">
<path d="M20.9376 2.56219C21.6398 2.56904 22.342 2.57589 23.0655 2.58294C30.1507 2.80261 34.2091 4.42338 39.4376 9.24969C41.5229 12.9198 41.7155 15.8025 42.0001 19.9997C38.5993 20.3563 35.388 20.5294 32.0001 19.9997C30.2887 18.0378 28.6214 16.0367 27.0001 13.9997C22.594 12.4904 19.1476 12.4611 14.9376 14.4372C14.2982 14.9528 13.6589 15.4684 13.0001 15.9997C12.9484 18.4224 12.9484 18.4224 14.0001 20.9997C19.4096 24.1447 25.6796 25.3575 31.6954 26.9372C36.17 28.3758 39.9615 30.3534 43.0001 33.9997C44.8122 39.4359 44.7101 44.9818 42.8126 50.3747C39.3857 55.3378 35.7415 57.4296 30.0001 58.9997C27.306 59.2107 24.7514 59.3249 22.0626 59.3122C21.0465 59.3364 21.0465 59.3364 20.0099 59.361C13.5726 59.3672 9.06961 57.7933 4.1876 53.5622C0.479509 49.2184 -0.261221 46.7489 0.000104558 40.9997C3.72641 40.6528 7.28708 40.4616 11.0001 40.9997C13.3751 43.8747 13.3751 43.8747 15.0001 46.9997C19.3724 49.8729 24.0854 48.9556 29.0001 47.9997C29.9901 47.5047 29.9901 47.5047 31.0001 46.9997C31.4176 44.126 31.4176 44.126 31.0001 40.9997C26.309 37.2898 20.383 36.3983 14.6817 35.07C9.25313 33.689 5.99527 31.9639 2.0001 27.9997C-0.733895 22.8883 -0.370092 17.5073 1.0001 11.9997C3.20069 7.62592 6.56845 5.43155 11.047 3.60833C14.3109 2.59121 17.5537 2.51152 20.9376 2.56219Z" fill="white"/>
<path d="M192 66.9997C194.87 68.7936 196.491 69.9823 198 72.9997C198.619 72.1953 199.237 71.391 199.875 70.5622C202 67.9997 202 67.9997 204 66.9997C205.664 66.9041 207.333 66.8699 209 66.8747C209.887 66.8721 210.774 66.8695 211.687 66.8669C214 66.9997 214 66.9997 216 67.9997C216.66 67.6697 217.32 67.3397 218 66.9997C222.635 66.4342 226.599 66.323 230.562 68.9997C231.367 69.6597 232.171 70.3197 233 70.9997C233.454 70.3397 233.907 69.6797 234.375 68.9997C237.847 66.3543 240.299 66.3718 244.578 66.5427C247 66.9997 247 66.9997 250.187 69.2497C252 71.9997 252 71.9997 251.812 74.3122C251.544 74.8691 251.276 75.426 251 75.9997C250.134 75.6903 249.267 75.381 248.375 75.0622C245.238 74.0748 242.249 73.4639 239 72.9997C239 73.6597 239 74.3197 239 74.9997C239.675 75.1699 240.351 75.34 241.047 75.5153C244.9 76.5621 248.292 77.5552 251.687 79.6872C253.407 82.7168 253.166 84.7101 252.75 88.0974C251.699 90.7619 250.489 91.6128 248 92.9997C245.309 93.363 245.309 93.363 242.437 93.3122C241.487 93.3083 240.537 93.3045 239.559 93.3005C237 92.9997 237 92.9997 234 90.9997C233.505 91.4947 233.505 91.4947 233 91.9997C230 92.1247 230 92.1247 227 91.9997C224.881 89.8804 225.582 85.3801 225.437 82.4372C225.394 81.6309 225.351 80.8246 225.307 79.9938C225.2 77.996 225.1 75.9979 225 73.9997C223.054 73.409 223.054 73.409 221 72.9997C219.486 74.5139 219.787 75.9244 219.684 78.0349C219.621 79.2482 219.621 79.2482 219.557 80.486C219.517 81.3362 219.478 82.1863 219.437 83.0622C219.373 84.3432 219.373 84.3432 219.307 85.6501C219.2 87.7664 219.1 89.883 219 91.9997C216.69 91.9997 214.38 91.9997 212 91.9997C211.505 83.0897 211.505 83.0897 211 73.9997C208.525 73.5047 208.525 73.5047 206 72.9997C205.67 79.2697 205.34 85.5397 205 91.9997C203.02 91.9997 201.04 91.9997 199 91.9997C199 88.3697 199 84.7397 199 80.9997C194.05 80.9997 189.1 80.9997 184 80.9997C184.33 82.6497 184.66 84.2997 185 85.9997C186.98 85.9997 188.96 85.9997 191 85.9997C191 85.3397 191 84.6797 191 83.9997C193.31 83.9997 195.62 83.9997 198 83.9997C197.134 86.669 196.278 88.6771 194.437 90.8122C190.663 92.6512 187.108 92.798 183 91.9997C179.718 89.47 178.307 87.9224 177 83.9997C176.434 78.2869 176.759 73.9212 180 68.9997C184.019 66.3206 187.276 66.3036 192 66.9997ZM184 73.9997C184 74.9897 184 75.9797 184 76.9997C186.64 76.9997 189.28 76.9997 192 76.9997C190.645 74.463 190.645 74.463 189 71.9997C186.676 71.8148 186.676 71.8148 184 73.9997ZM233 78.9997C233 80.6497 233 82.2997 233 83.9997C234.98 83.9997 236.96 83.9997 239 83.9997C239.66 85.3197 240.32 86.6397 241 87.9997C242.65 87.6697 244.3 87.3397 246 86.9997C245.338 83.8464 245.338 83.8464 242.785 82.8669C241.887 82.5395 240.988 82.212 240.062 81.8747C239.167 81.5421 238.271 81.2095 237.348 80.8669C236.573 80.5807 235.798 80.2945 235 79.9997C234.34 79.6697 233.68 79.3397 233 78.9997Z" fill="white"/>
<path d="M243.539 16.8872C249.13 20.0389 251.912 24.3756 253.75 30.5004C254.065 33.6525 254 36.8327 254 40.0004C245.09 40.0004 236.18 40.0004 227 40.0004C228.184 46.5802 228.184 46.5802 230.75 48.5004C233.82 49.1827 235.979 48.8361 239 48.0004C239.438 47.4926 239.876 46.9847 240.328 46.4614C242.743 44.3511 244.542 44.7019 247.687 44.8129C249.178 44.8536 249.178 44.8536 250.699 44.895C251.458 44.9298 252.218 44.9646 253 45.0004C251.414 50.6818 249.325 54.2715 244.562 57.8129C238.053 59.9827 231.003 60.0195 224.5 57.8129C219.37 54.0938 216.637 51.1637 215 45.0004C213.575 28.8618 213.575 28.8618 217.633 22.5512C224.297 14.9921 234.057 13.5758 243.539 16.8872ZM229.25 26.7504C228.507 27.4929 227.765 28.2354 227 29.0004C227 30.3204 227 31.6404 227 33.0004C231.95 33.0004 236.9 33.0004 242 33.0004C240.727 27.2562 240.727 27.2562 238.125 25.6254C234.449 24.5443 232.47 24.7012 229.25 26.7504Z" fill="white"/>
<path d="M155.438 14.6875C156.715 14.6707 157.993 14.654 159.309 14.6367C164.098 15.1081 167.552 16.4024 170.813 20C173.612 24.7142 173.219 29.3796 173.25 34.6875C173.271 35.5608 173.291 36.4342 173.313 37.334C173.348 43.261 172.511 47.6107 170 53C164.822 58.1782 159.746 59.3027 152.563 59.375C151.285 59.4034 150.008 59.4317 148.691 59.4609C144.407 58.926 142.32 57.7089 139 55C135.88 50.3206 136.422 45.4766 137 40C138.94 36.0391 140.536 35.2237 144.5 33.3125C149.848 31.5298 155.435 30.7884 161 30C160.67 28.68 160.34 27.36 160 26C155.468 24.9094 155.468 24.9094 151.125 25.9375C148.459 27.2706 146.213 27.4133 143.25 27.625C141.773 27.7371 141.773 27.7371 140.266 27.8516C139.518 27.9005 138.77 27.9495 138 28C138.452 23.1395 139.531 20.4686 143 17C147.153 14.86 150.805 14.7015 155.438 14.6875ZM155 39.9375C153.907 40.2971 152.814 40.6568 151.688 41.0273C149.115 41.7434 149.115 41.7434 148 43C147.667 45.958 147.667 45.958 148 49C150.885 51.3452 150.885 51.3452 154.5 50.875C157.933 50.2863 157.933 50.2863 159.875 48.4375C161.477 44.9665 161.683 41.8067 162 38C159.674 38 157.169 39.219 155 39.9375Z" fill="white"/>
<path d="M78.2773 17.598C82.878 21.3432 85.1235 26.2332 86 32.0003C86.722 39.7051 85.8895 46.2189 82 53.0003C77.6576 57.454 72.8654 59.2859 66.6875 59.3753C59.9499 59.2391 55.3818 57.3822 50.625 52.6253C45.9345 45.0484 45.9375 36.1241 47.4297 27.5238C49.0564 22.3223 52.4042 18.8567 57 16.0003C63.8523 13.6833 71.9912 13.9709 78.2773 17.598ZM61.125 26.7503C57.6677 30.4109 57.711 33.8565 57.7891 38.6449C58.1293 42.4442 58.9915 44.7197 61 48.0003C63.7852 49.8179 63.7852 49.8179 67 50.0003C69.8558 48.8321 71.4473 47.8612 73.1211 45.2542C74.2249 42.4236 74.301 40.0973 74.3125 37.0628C74.3293 36.0432 74.346 35.0235 74.3633 33.973C73.9466 30.5635 73.0937 28.7081 71 26.0003C66.782 24.6724 64.9455 24.4248 61.125 26.7503Z" fill="white"/>
<path d="M99.9999 67.9995C102.437 69.937 102.437 69.937 104 72.9995C104.317 76.6918 104.233 80.3041 104 83.9995C105.114 83.9377 106.227 83.8758 107.375 83.812C109.169 83.9048 109.169 83.9048 111 83.9995C111.66 84.9895 112.32 85.9795 113 86.9995C115.584 87.2498 115.584 87.2498 118 86.9995C115.821 84.5472 114.043 83.453 110.937 82.437C108.196 81.5335 107.093 81.0925 105 78.9995C104.342 72.1965 104.342 72.1965 106.375 68.4995C110.481 66.1532 114.396 66.1306 119 66.9995C122.187 69.2495 122.187 69.2495 124 71.9995C123.812 74.312 123.812 74.312 123 75.9995C122.134 75.6902 121.267 75.3808 120.375 75.062C117.238 74.0746 114.249 73.4637 111 72.9995C111 73.6595 111 74.3195 111 74.9995C111.675 75.1697 112.351 75.3398 113.047 75.5152C116.9 76.5619 120.292 77.5551 123.687 79.687C125.407 82.7166 125.166 84.7099 124.75 88.0972C123.703 90.7532 122.471 91.6028 120 92.9995C115.605 93.7962 110.946 94.067 106.949 91.8745C105.312 90.4995 105.312 90.4995 103 87.9995C102.381 88.6389 101.762 89.2783 101.125 89.937C97.9974 92.9726 97.9974 92.9726 94.9765 93.0542C88.6146 92.5681 88.6146 92.5681 85.4999 89.687C82.2933 83.9417 82.2631 78.6001 84.0624 72.2495C85.9999 68.9995 85.9999 68.9995 89.2499 66.937C93.7338 65.8161 95.8073 66.101 99.9999 67.9995ZM91.9999 72.9995C89.7567 74.8115 89.7567 74.8115 89.8046 77.3823C89.8278 78.2873 89.851 79.1922 89.8749 80.1245C89.893 81.0346 89.911 81.9447 89.9296 82.8823C89.9528 83.581 89.976 84.2797 89.9999 84.9995C92.4749 85.9895 92.4749 85.9895 94.9999 86.9995C97.4968 84.3986 97.9907 83.1045 98.3124 79.437C98.2646 75.8797 98.2646 75.8797 95.9999 72.9995C94.6799 72.9995 93.3599 72.9995 91.9999 72.9995Z" fill="white"/>
<path d="M118 4C119.458 3.946 120.916 3.90721 122.375 3.875C123.187 3.8518 123.999 3.82859 124.836 3.80469C127 4 127 4 129 6C129.195 8.38281 129.195 8.38281 129.125 11.125C129.107 12.0351 129.089 12.9452 129.07 13.8828C129.047 14.5815 129.024 15.2802 129 16C131.31 16 133.62 16 136 16C136.363 20.474 136.363 20.474 134.75 22.8125C133 24 133 24 129 24C129.138 27.792 129.287 31.5835 129.437 35.375C129.477 36.4552 129.516 37.5355 129.557 38.6484C129.619 40.1953 129.619 40.1953 129.684 41.7734C129.72 42.7265 129.757 43.6796 129.795 44.6616C129.858 47.0213 129.858 47.0213 131 49C133.527 49.6556 133.527 49.6556 136 50C136 52.64 136 55.28 136 58C133.562 58.081 131.126 58.1405 128.687 58.1875C127.997 58.2126 127.307 58.2378 126.596 58.2637C121.477 58.3378 121.477 58.3378 119.298 56.7956C117.57 54.4052 117.638 52.9135 117.659 49.9778C117.66 48.957 117.66 47.9361 117.66 46.8844C117.676 45.7843 117.691 44.6842 117.707 43.5508C117.711 42.423 117.715 41.2953 117.72 40.1333C117.737 36.5262 117.774 32.9195 117.812 29.3125C117.827 26.8691 117.841 24.4258 117.853 21.9824C117.887 15.9881 117.937 9.99409 118 4Z" fill="white"/>
<path d="M88 4C90.97 4 93.94 4 97 4C100 7 100 7 100.361 9.29692C100.354 10.1963 100.347 11.0956 100.341 12.0222C100.34 13.043 100.34 14.0639 100.34 15.1156C100.324 16.2157 100.309 17.3158 100.293 18.4492C100.289 19.577 100.284 20.7047 100.28 21.8667C100.263 25.4738 100.226 29.0805 100.188 32.6875C100.172 35.1309 100.159 37.5742 100.146 40.0176C100.113 46.0119 100.062 52.0059 100 58C96.04 58 92.08 58 88 58C88 40.18 88 22.36 88 4Z" fill="white"/>
<path d="M167 60C168.98 60 170.96 60 173 60C174 61 174 61 174.062 64.5625C174.042 65.6969 174.021 66.8312 174 68C174.99 68 175.98 68 177 68C176.67 69.32 176.34 70.64 176 72C175.34 72 174.68 72 174 72C174.113 74.3131 174.241 76.6255 174.375 78.9375C174.445 80.2253 174.514 81.513 174.586 82.8398C174.723 83.8827 174.859 84.9255 175 86C175.66 86.33 176.32 86.66 177 87C177 88.65 177 90.3 177 92C175.742 92.0413 174.484 92.0825 173.188 92.125C172.48 92.1482 171.772 92.1714 171.043 92.1953C169 92 169 92 166 90C165.178 90.727 165.178 90.727 164.34 91.4688C160.231 94.158 155.73 93.7557 151 93C147.812 90.75 147.812 90.75 146 88C146 86.68 146 85.36 146 84C149.375 83.8125 149.375 83.8125 153 84C153.66 84.99 154.32 85.98 155 87C157.584 87.2503 157.584 87.2503 160 87C157.821 84.5477 156.044 83.4535 152.938 82.4375C150.196 81.534 149.093 81.093 147 79C146.342 72.197 146.342 72.197 148.375 68.5C152.481 66.1537 156.396 66.1311 161 67C164.188 69.25 164.188 69.25 166 72C165.812 74.3125 165.812 74.3125 165 76C164.134 75.6906 163.267 75.3812 162.375 75.0625C159.238 74.0751 156.249 73.4642 153 73C153 73.66 153 74.32 153 75C154.031 75.29 154.031 75.29 155.082 75.5859C155.983 75.8463 156.884 76.1067 157.812 76.375C159.152 76.7579 159.152 76.7579 160.52 77.1484C163 78 163 78 166 80C166.33 73.4 166.66 66.8 167 60Z" fill="white"/>
<path d="M77.9454 59.8047C79.9637 59.8698 81.9819 59.9349 84.0001 60C84.0001 61.65 84.0001 63.3 84.0001 65C83.0101 65.33 82.0201 65.66 81.0001 66C80.6701 66.99 80.3401 67.98 80.0001 69C81.3201 69 82.6401 69 84.0001 69C83.6701 70.65 83.3401 72.3 83.0001 74C82.0101 74 81.0201 74 80.0001 74C80.0001 79.94 80.0001 85.88 80.0001 92C70.7228 92.0977 70.7228 92.0977 68.0001 92C65.8809 89.8807 66.5818 85.3804 66.4376 82.4375C66.3944 81.6312 66.3512 80.8249 66.3067 79.9941C66.2004 77.9963 66.0997 75.9982 66.0001 74C64.3501 73.67 62.7001 73.34 61.0001 73C60.6701 79.27 60.3401 85.54 60.0001 92C58.0201 92 56.0401 92 54.0001 92C53.8543 88.7713 53.7659 85.5435 53.6876 82.3125C53.6457 81.4005 53.6038 80.4885 53.5607 79.5488C53.477 74.9499 53.4886 72.7136 56.2345 68.8828C59.0608 66.9587 60.2146 66.382 63.5626 66.5625C64.6783 66.5954 64.6783 66.5954 65.8165 66.6289C68.2259 67.0384 69.9216 67.7219 72.0001 69C72.3301 69.66 72.6601 70.32 73.0001 71C73.0491 70.3735 73.0981 69.747 73.1485 69.1016C73.2233 68.2843 73.2981 67.467 73.3751 66.625C73.4447 65.8129 73.5143 65.0008 73.586 64.1641C74.1322 61.3096 74.9701 60.1034 77.9454 59.8047Z" fill="white"/>
<path d="M214 16.0005C214 19.6305 214 23.2605 214 27.0005C212.577 27.2273 211.154 27.4542 209.687 27.688C206.447 28.2045 205.359 28.509 203.39 31.1997C201.858 34.2857 201.58 36.3142 201.488 39.7387C201.453 40.8054 201.417 41.8721 201.381 42.9712C201.347 44.6253 201.347 44.6253 201.312 46.313C201.278 47.4351 201.244 48.5572 201.209 49.7133C201.127 52.4754 201.062 55.2379 201 58.0005C197.37 58.0005 193.74 58.0005 190 58.0005C189.883 53.5007 189.812 49.0013 189.75 44.5005C189.716 43.232 189.683 41.9636 189.648 40.6567C189.571 33.2575 189.895 28.2399 194 22.0005C199.932 16.0688 206.036 15.7591 214 16.0005Z" fill="white"/>
<path d="M176 16C178.97 16 181.94 16 185 16C188 19 188 19 188.341 22.9207C188.34 24.5553 188.323 26.1899 188.293 27.8242C188.289 28.6856 188.284 29.547 188.28 30.4345C188.263 33.1858 188.226 35.9364 188.188 38.6875C188.172 40.5527 188.159 42.418 188.146 44.2832C188.113 48.8558 188.062 53.4278 188 58C184.04 58 180.08 58 176 58C176 44.14 176 30.28 176 16Z" fill="white"/>
<path d="M103 16C105.97 16 108.94 16 112 16C115 19 115 19 115.341 22.9207C115.34 24.5553 115.323 26.1899 115.293 27.8242C115.289 28.6856 115.284 29.547 115.28 30.4345C115.263 33.1858 115.226 35.9364 115.188 38.6875C115.172 40.5527 115.159 42.418 115.146 44.2832C115.113 48.8558 115.062 53.4278 115 58C111.04 58 107.08 58 103 58C103 44.14 103 30.28 103 16Z" fill="white"/>
<path d="M125 68C127.31 68 129.62 68 132 68C132.505 69.6026 133.004 71.2071 133.5 72.8125C133.778 73.7058 134.057 74.5991 134.344 75.5195C135 78 135 78 135 81C135.66 81 136.32 81 137 81C137.133 80.2291 137.266 79.4583 137.402 78.6641C137.579 77.6612 137.756 76.6583 137.938 75.625C138.199 74.1284 138.199 74.1284 138.465 72.6016C139 70 139 70 140 68C142.31 68 144.62 68 147 68C145.367 75.3062 143.315 82.4472 141 89.5625C140.751 90.348 140.502 91.1335 140.246 91.9429C140 92.6849 139.754 93.4269 139.5 94.1914C139.283 94.8534 139.067 95.5154 138.844 96.1975C137.843 98.3364 136.865 99.5489 135 101C131.312 101.188 131.312 101.188 128 101C128 99.35 128 97.7 128 96C129.32 95.34 130.64 94.68 132 94C131.682 92.9785 131.682 92.9785 131.357 91.9363C130.401 88.8547 129.45 85.7711 128.5 82.6875C128.166 81.6156 127.832 80.5438 127.488 79.4395C127.172 78.4114 126.857 77.3834 126.531 76.3242C126.238 75.3764 125.945 74.4285 125.643 73.4519C125 71 125 71 125 68Z" fill="white"/>
<path d="M46 67C47.65 67 49.3 67 51 67C53 69 53 69 53.2271 71.3384C53.2166 72.2915 53.2061 73.2446 53.1953 74.2266C53.1889 75.2578 53.1824 76.2891 53.1758 77.3516C53.159 78.4318 53.1423 79.512 53.125 80.625C53.116 81.713 53.107 82.8009 53.0977 83.9219C53.074 86.6148 53.0411 89.3073 53 92C50.69 92 48.38 92 46 92C46 83.75 46 75.5 46 67Z" fill="white"/>
<path d="M176 4C177.625 3.94605 179.25 3.90723 180.875 3.875C181.78 3.8518 182.685 3.82859 183.617 3.80469C186 4 186 4 188 6C188.125 9.625 188.125 9.625 188 13C184.04 13 180.08 13 176 13C176 10.03 176 7.06 176 4Z" fill="white"/>
<path d="M103 4C104.625 3.94605 106.25 3.90723 107.875 3.875C108.78 3.8518 109.685 3.82859 110.617 3.80469C113 4 113 4 115 6C115.125 9.625 115.125 9.625 115 13C111.04 13 107.08 13 103 13C103 10.03 103 7.06 103 4Z" fill="white"/>
<path d="M46 60C47.98 60 49.96 60 52 60C52.33 61.65 52.66 63.3 53 65C50.69 65 48.38 65 46 65C46 63.35 46 61.7 46 60Z" fill="white"/>
</g>
<defs>
<clipPath id="clip0_668_487">
<rect width="259" height="104" fill="white"/>
</clipPath>
</defs>
</svg>
